# xmcd
#
# Track frame offsets:
#	150
#	15905
#	33617
#	49076
#	66096
#	81410
#
# Disc length: 1311 seconds
#
# Revision: 0
# Processed by: cddbd v1.5.1PL0 Copyright (c) Steve Scherf et al.
# Submitted via: dBpowerAMP V4.0
#
DISCID=45051d06
DTITLE=Jayron Weaver - Jayron Weaver
DYEAR=2005
DGENRE=Country
TTITLE0=Tell Me
TTITLE1=Lost In This Moment With You
TTITLE2=The Way I Fell About You
TTITLE3=Dangerous
TTITLE4=She's Not That Kind
TTITLE5=Beginning Of The Living
EXTD=
EXTT0=
EXTT1=
EXTT2=
EXTT3=
EXTT4=
EXTT5=
PLAYORDER=
